<svg width="20" height="20" viewBox="0 0 20 20" fill="none" xmlns="http://www.w3.org/2000/svg">
<rect x="1.58289" y="1.58203" width="16.8838" height="17.4114" fill="#4878F3"/>
<path d="M16.0429 0H3.95714C2.90799 0.00113125 1.90213 0.418406 1.16027 1.16027C0.418406 1.90213 0.00113125 2.90799 0 3.95714V16.0429C0.00113125 17.092 0.418406 18.0979 1.16027 18.8397C1.90213 19.5816 2.90799 19.9989 3.95714 20H16.0429C17.092 19.9989 18.0979 19.5816 18.8397 18.8397C19.5816 18.0979 19.9989 17.092 20 16.0429V3.95714C19.9989 2.90799 19.5816 1.90213 18.8397 1.16027C18.0979 0.418406 17.092 0.00113125 16.0429 0ZM18.4171 16.0429C18.4165 16.6724 18.1661 17.2759 17.721 17.721C17.2759 18.1661 16.6724 18.4165 16.0429 18.4171H3.95714C3.32765 18.4165 2.72414 18.1661 2.27902 17.721C1.83391 17.2759 1.58354 16.6724 1.58285 16.0429V3.95714C1.58354 3.32765 1.83391 2.72414 2.27902 2.27902C2.72414 1.83391 3.32765 1.58354 3.95714 1.58285H16.0429C16.6724 1.58354 17.2759 1.83391 17.721 2.27902C18.1661 2.72414 18.4165 3.32765 18.4171 3.95714V16.0429ZM15.2673 6.60525L9.29204 14.3608C9.21811 14.4568 9.12314 14.5345 9.01446 14.588C8.90577 14.6415 8.78627 14.6694 8.66513 14.6694H8.6636C8.54225 14.6692 8.42258 14.641 8.31385 14.5871C8.20512 14.5333 8.11023 14.4551 8.03652 14.3587L4.73121 10.036C4.66648 9.95363 4.61877 9.85918 4.59084 9.75819C4.56291 9.65719 4.55531 9.55165 4.56849 9.4477C4.58166 9.34374 4.61535 9.24344 4.6676 9.1526C4.71985 9.06177 4.78962 8.98222 4.87285 8.91856C4.95609 8.8549 5.05114 8.80841 5.15248 8.78178C5.25383 8.75515 5.35946 8.74891 5.46323 8.76342C5.56701 8.77793 5.66688 8.81291 5.75703 8.86632C5.84718 8.91973 5.92583 8.99051 5.98841 9.07456L8.66771 12.5783L14.0133 5.63918C14.0767 5.55683 14.1557 5.48779 14.2459 5.43598C14.336 5.38418 14.4354 5.35063 14.5385 5.33725C14.6416 5.32388 14.7463 5.33094 14.8466 5.35803C14.947 5.38512 15.041 5.43171 15.1234 5.49514C15.2057 5.55858 15.2748 5.63761 15.3266 5.72773C15.3784 5.81784 15.4119 5.91728 15.4253 6.02037C15.4387 6.12345 15.4316 6.22816 15.4045 6.32851C15.3775 6.42887 15.3307 6.5229 15.2673 6.60525Z" fill="white"/>
</svg>
