<svg width="10" height="2" viewBox="0 0 10 2" fill="none" xmlns="http://www.w3.org/2000/svg">
<path d="M5 0C4.59089 0 5.28516 8.76784e-05 4.75134 8.76784e-05H4.25926H0.740741C0.331648 8.76784e-05 0 0.331717 0 0.740829C0 1.14994 0.331648 1.48157 0.740741 1.48157H4.25926H4.5C5.11719 1.48157 4.53415 1.48157 4.94326 1.48157C5.35237 1.48157 4.73047 1.48157 5.41511 1.48157H5.74074H9.25926C9.66835 1.48157 10 1.14994 10 0.740829C10 0.331717 9.66835 8.76784e-05 9.25926 8.76784e-05H5.74074H5.36706C4.6875 0.000191629 5.40911 0 5 0Z" fill="#777777"/>
</svg>
